<?xml version="1.0" encoding="UTF-8"?>
<svg id="Layer_2" data-name="Layer 2" xmlns="http://www.w3.org/2000/svg" xmlns:xlink="http://www.w3.org/1999/xlink" viewBox="0 0 2774.7 1772.77">
  <defs>
    <style>
      .cls-1 {
        fill: #bfc5e2;
      }

      .cls-2 {
        fill: #e6ebfc;
      }

      .cls-3 {
        fill: none;
        stroke: #f7931e;
        stroke-dasharray: 29.53 19.69;
        stroke-miterlimit: 10;
        stroke-width: 9.84px;
      }

      .cls-4 {
        fill: url(#linear-gradient-8);
      }

      .cls-5 {
        fill: url(#linear-gradient-7);
      }

      .cls-6 {
        fill: url(#linear-gradient-5);
      }

      .cls-7 {
        fill: url(#linear-gradient-6);
      }

      .cls-8 {
        fill: url(#linear-gradient-9);
      }

      .cls-9 {
        fill: url(#linear-gradient-4);
      }

      .cls-10 {
        fill: url(#linear-gradient-3);
      }

      .cls-11 {
        fill: url(#linear-gradient-2);
      }

      .cls-12, .cls-13, .cls-14, .cls-15, .cls-16, .cls-17, .cls-18, .cls-19, .cls-20, .cls-21, .cls-22, .cls-23, .cls-24, .cls-25, .cls-26, .cls-27, .cls-28, .cls-29, .cls-30, .cls-31, .cls-32, .cls-33, .cls-34, .cls-35, .cls-36, .cls-37, .cls-38, .cls-39, .cls-40, .cls-41, .cls-42, .cls-43, .cls-44, .cls-45, .cls-46, .cls-47, .cls-48, .cls-49, .cls-50, .cls-51, .cls-52, .cls-53, .cls-54, .cls-55, .cls-56, .cls-57, .cls-58, .cls-59, .cls-60, .cls-61, .cls-62, .cls-63 {
        fill: #0f0a26;
      }

      .cls-64 {
        fill: url(#linear-gradient);
      }

      .cls-65 {
        fill: #646fb3;
      }

      .cls-13 {
        opacity: .04;
      }

      .cls-14 {
        opacity: .02;
      }

      .cls-15 {
        opacity: .86;
      }

      .cls-16 {
        opacity: .9;
      }

      .cls-17 {
        opacity: .75;
      }

      .cls-18 {
        opacity: .78;
      }

      .cls-19 {
        opacity: .82;
      }

      .cls-20 {
        opacity: .8;
      }

      .cls-21 {
        opacity: .88;
      }

      .cls-22 {
        opacity: .84;
      }

      .cls-23 {
        opacity: .73;
      }

      .cls-24 {
        opacity: .71;
      }

      .cls-25 {
        opacity: .69;
      }

      .cls-26 {
        opacity: .76;
      }

      .cls-27 {
        opacity: .43;
      }

      .cls-28 {
        opacity: .94;
      }

      .cls-29 {
        opacity: .92;
      }

      .cls-30 {
        opacity: .45;
      }

      .cls-31 {
        opacity: .98;
      }

      .cls-32 {
        opacity: .96;
      }

      .cls-33 {
        opacity: .37;
      }

      .cls-34 {
        opacity: .39;
      }

      .cls-35 {
        opacity: .41;
      }

      .cls-36 {
        opacity: .67;
      }

      .cls-37 {
        opacity: .65;
      }

      .cls-38 {
        opacity: .35;
      }

      .cls-39 {
        opacity: .57;
      }

      .cls-40 {
        opacity: .55;
      }

      .cls-41 {
        opacity: .53;
      }

      .cls-42 {
        opacity: .61;
      }

      .cls-43 {
        opacity: .59;
      }

      .cls-44 {
        opacity: .63;
      }

      .cls-45 {
        opacity: .22;
      }

      .cls-46 {
        opacity: .47;
      }

      .cls-47 {
        opacity: .49;
      }

      .cls-48 {
        opacity: .51;
      }

      .cls-49 {
        opacity: .2;
      }

      .cls-50 {
        opacity: .33;
      }

      .cls-51 {
        opacity: .18;
      }

      .cls-52 {
        opacity: .27;
      }

      .cls-53 {
        opacity: .29;
      }

      .cls-54 {
        opacity: .31;
      }

      .cls-55 {
        opacity: .24;
      }

      .cls-56 {
        opacity: .25;
      }

      .cls-57 {
        opacity: .1;
      }

      .cls-58 {
        opacity: .14;
      }

      .cls-59 {
        opacity: .16;
      }

      .cls-60 {
        opacity: .12;
      }

      .cls-61 {
        opacity: .08;
      }

      .cls-62 {
        opacity: .06;
      }

      .cls-66 {
        fill: #fff;
      }

      .cls-63 {
        opacity: 0;
      }

      .cls-67 {
        fill: url(#linear-gradient-43);
      }

      .cls-68 {
        fill: url(#linear-gradient-40);
      }

      .cls-69 {
        fill: url(#linear-gradient-41);
      }

      .cls-70 {
        fill: url(#linear-gradient-42);
      }

      .cls-71 {
        fill: url(#linear-gradient-49);
      }

      .cls-72 {
        fill: url(#linear-gradient-48);
      }

      .cls-73 {
        fill: url(#linear-gradient-45);
      }

      .cls-74 {
        fill: url(#linear-gradient-47);
      }

      .cls-75 {
        fill: url(#linear-gradient-44);
      }

      .cls-76 {
        fill: url(#linear-gradient-46);
      }

      .cls-77 {
        fill: url(#linear-gradient-10);
      }

      .cls-78 {
        fill: url(#linear-gradient-11);
      }

      .cls-79 {
        fill: url(#linear-gradient-12);
      }

      .cls-80 {
        fill: url(#linear-gradient-13);
      }

      .cls-81 {
        fill: url(#linear-gradient-19);
      }

      .cls-82 {
        fill: url(#linear-gradient-14);
      }

      .cls-83 {
        fill: url(#linear-gradient-21);
      }

      .cls-84 {
        fill: url(#linear-gradient-20);
      }

      .cls-85 {
        fill: url(#linear-gradient-22);
      }

      .cls-86 {
        fill: url(#linear-gradient-23);
      }

      .cls-87 {
        fill: url(#linear-gradient-28);
      }

      .cls-88 {
        fill: url(#linear-gradient-25);
      }

      .cls-89 {
        fill: url(#linear-gradient-32);
      }

      .cls-90 {
        fill: url(#linear-gradient-31);
      }

      .cls-91 {
        fill: url(#linear-gradient-33);
      }

      .cls-92 {
        fill: url(#linear-gradient-30);
      }

      .cls-93 {
        fill: url(#linear-gradient-15);
      }

      .cls-94 {
        fill: url(#linear-gradient-16);
      }

      .cls-95 {
        fill: url(#linear-gradient-17);
      }

      .cls-96 {
        fill: url(#linear-gradient-18);
      }

      .cls-97 {
        fill: url(#linear-gradient-35);
      }

      .cls-98 {
        fill: url(#linear-gradient-34);
      }

      .cls-99 {
        fill: url(#linear-gradient-36);
      }

      .cls-100 {
        fill: url(#linear-gradient-38);
      }

      .cls-101 {
        fill: url(#linear-gradient-27);
      }

      .cls-102 {
        fill: url(#linear-gradient-24);
      }

      .cls-103 {
        fill: url(#linear-gradient-26);
      }

      .cls-104 {
        fill: url(#linear-gradient-29);
      }

      .cls-105 {
        fill: url(#linear-gradient-37);
      }

      .cls-106 {
        fill: url(#linear-gradient-39);
      }

      .cls-107 {
        fill: url(#linear-gradient-57);
      }

      .cls-108 {
        fill: url(#linear-gradient-58);
      }

      .cls-109 {
        fill: url(#linear-gradient-59);
      }

      .cls-110 {
        fill: url(#linear-gradient-53);
      }

      .cls-111 {
        fill: url(#linear-gradient-54);
      }

      .cls-112 {
        fill: url(#linear-gradient-55);
      }

      .cls-113 {
        fill: url(#linear-gradient-56);
      }

      .cls-114 {
        fill: url(#linear-gradient-50);
      }

      .cls-115 {
        fill: url(#linear-gradient-51);
      }

      .cls-116 {
        fill: url(#linear-gradient-52);
      }

      .cls-117 {
        fill: url(#linear-gradient-67);
      }

      .cls-118 {
        fill: url(#linear-gradient-68);
      }

      .cls-119 {
        fill: url(#linear-gradient-69);
      }

      .cls-120 {
        fill: url(#linear-gradient-63);
      }

      .cls-121 {
        fill: url(#linear-gradient-64);
      }

      .cls-122 {
        fill: url(#linear-gradient-65);
      }

      .cls-123 {
        fill: url(#linear-gradient-66);
      }

      .cls-124 {
        fill: url(#linear-gradient-60);
      }

      .cls-125 {
        fill: url(#linear-gradient-61);
      }

      .cls-126 {
        fill: url(#linear-gradient-62);
      }

      .cls-127 {
        fill: url(#linear-gradient-79);
      }

      .cls-128 {
        fill: url(#linear-gradient-78);
      }

      .cls-129 {
        fill: url(#linear-gradient-75);
      }

      .cls-130 {
        fill: url(#linear-gradient-72);
      }

      .cls-131 {
        fill: url(#linear-gradient-77);
      }

      .cls-132 {
        fill: url(#linear-gradient-74);
      }

      .cls-133 {
        fill: url(#linear-gradient-76);
      }

      .cls-134 {
        fill: url(#linear-gradient-71);
      }

      .cls-135 {
        fill: url(#linear-gradient-73);
      }

      .cls-136 {
        fill: url(#linear-gradient-70);
      }

      .cls-137 {
        fill: url(#linear-gradient-87);
      }

      .cls-138 {
        fill: url(#linear-gradient-88);
      }

      .cls-139 {
        fill: url(#linear-gradient-89);
      }

      .cls-140 {
        fill: url(#linear-gradient-85);
      }

      .cls-141 {
        fill: url(#linear-gradient-83);
      }

      .cls-142 {
        fill: url(#linear-gradient-82);
      }

      .cls-143 {
        fill: url(#linear-gradient-84);
      }

      .cls-144 {
        fill: url(#linear-gradient-86);
      }

      .cls-145 {
        fill: url(#linear-gradient-81);
      }

      .cls-146 {
        fill: url(#linear-gradient-80);
      }

      .cls-147 {
        fill: url(#linear-gradient-92);
      }

      .cls-148 {
        fill: url(#linear-gradient-93);
      }

      .cls-149 {
        fill: url(#linear-gradient-94);
      }

      .cls-150 {
        fill: url(#linear-gradient-91);
      }

      .cls-151 {
        fill: url(#linear-gradient-90);
      }

      .cls-152 {
        opacity: .35;
      }

      .cls-153 {
        fill: #c5c5c7;
      }

      .cls-154 {
        fill: #fafcfb;
      }

      .cls-155 {
        fill: #fcbd1f;
      }
    </style>
    <linearGradient id="linear-gradient" x1="689.22" y1="596.13" x2="1841.44" y2="596.13" gradientUnits="userSpaceOnUse">
      <stop offset="0" stop-color="#505faa"/>
      <stop offset=".7" stop-color="#8f92c7"/>
      <stop offset="1" stop-color="#bcbedd"/>
    </linearGradient>
    <linearGradient id="linear-gradient-2" x1="1265.33" y1="149.84" x2="1265.33" y2="994.55" gradientTransform="translate(683.29 1847.37) rotate(-90)" gradientUnits="userSpaceOnUse">
      <stop offset="0" stop-color="#6772b5"/>
      <stop offset="1" stop-color="#313f95"/>
    </linearGradient>
    <linearGradient id="linear-gradient-3" x1="2129.56" y1="1342.68" x2="841.76" y2="1342.68" gradientTransform="matrix(1,0,0,1,0,0)" xlink:href="#linear-gradient-2"/>
    <linearGradient id="linear-gradient-4" x1="2129.56" y1="1338.23" x2="841.76" y2="1338.23" gradientUnits="userSpaceOnUse">
      <stop offset="0" stop-color="#e7e7e7"/>
      <stop offset="1" stop-color="#fbfbfb"/>
    </linearGradient>
    <linearGradient id="linear-gradient-5" x1="488.28" y1="1283.18" x2="1891.51" y2="1283.18" xlink:href="#linear-gradient-4"/>
    <linearGradient id="linear-gradient-6" x1="2264.52" y1="1097.55" x2="1029.27" y2="1097.55" gradientTransform="matrix(1,0,0,1,0,0)" xlink:href="#linear-gradient-2"/>
    <linearGradient id="linear-gradient-7" x1="2206.84" y1="1097.55" x2="991.05" y2="1097.55" gradientTransform="matrix(1,0,0,1,0,0)" xlink:href="#linear-gradient-2"/>
    <linearGradient id="linear-gradient-8" x1="2132.73" y1="1097.55" x2="955.57" y2="1097.55" gradientTransform="matrix(1,0,0,1,0,0)" xlink:href="#linear-gradient-2"/>
    <linearGradient id="linear-gradient-9" x1="2050.97" y1="1097.55" x2="928.05" y2="1097.55" gradientTransform="matrix(1,0,0,1,0,0)" xlink:href="#linear-gradient-2"/>
    <linearGradient id="linear-gradient-10" x1="1968.98" y1="1097.54" x2="912.37" y2="1097.54" gradientTransform="matrix(1,0,0,1,0,0)" xlink:href="#linear-gradient-2"/>
    <linearGradient id="linear-gradient-11" x1="1892.84" y1="1097.54" x2="911.09" y2="1097.54" gradientTransform="matrix(1,0,0,1,0,0)" xlink:href="#linear-gradient-2"/>
    <linearGradient id="linear-gradient-12" x1="1827.35" y1="1097.54" x2="925.47" y2="1097.54" gradientTransform="matrix(1,0,0,1,0,0)" xlink:href="#linear-gradient-2"/>
    <linearGradient id="linear-gradient-13" x1="1814.62" y1="1097.54" x2="930.32" y2="1097.54" gradientTransform="matrix(1,0,0,1,0,0)" xlink:href="#linear-gradient-2"/>
    <linearGradient id="linear-gradient-14" x1="1849.55" y1="1097.54" x2="886.35" y2="1097.54" gradientTransform="matrix(1,0,0,1,0,0)" xlink:href="#linear-gradient-2"/>
    <linearGradient id="linear-gradient-15" x1="1868.14" y1="1097.54" x2="830.08" y2="1097.54" gradientTransform="matrix(1,0,0,1,0,0)" xlink:href="#linear-gradient-2"/>
    <linearGradient id="linear-gradient-16" x1="1870.25" y1="1097.53" x2="765.86" y2="1097.53" gradientTransform="matrix(1,0,0,1,0,0)" xlink:href="#linear-gradient-2"/>
    <linearGradient id="linear-gradient-17" x1="1857.58" y1="1097.53" x2="698.99" y2="1097.53" gradientTransform="matrix(1,0,0,1,0,0)" xlink:href="#linear-gradient-2"/>
    <linearGradient id="linear-gradient-18" x1="1833.2" y1="1097.53" x2="635.98" y2="1097.53" gradientTransform="matrix(1,0,0,1,0,0)" xlink:href="#linear-gradient-2"/>
    <linearGradient id="linear-gradient-19" x1="1801.43" y1="1097.53" x2="584.73" y2="1097.53" gradientTransform="matrix(1,0,0,1,0,0)" xlink:href="#linear-gradient-2"/>
    <linearGradient id="linear-gradient-20" x1="2238.03" y1="1154.02" x2="993.1" y2="1154.02" gradientTransform="matrix(1,0,0,1,0,0)" xlink:href="#linear-gradient-2"/>
    <linearGradient id="linear-gradient-21" x1="2205.11" y1="1153.92" x2="958.72" y2="1153.92" gradientTransform="matrix(1,0,0,1,0,0)" xlink:href="#linear-gradient-2"/>
    <linearGradient id="linear-gradient-22" x1="2149.83" y1="1153.82" x2="924.97" y2="1153.82" gradientTransform="matrix(1,0,0,1,0,0)" xlink:href="#linear-gradient-2"/>
    <linearGradient id="linear-gradient-23" x1="2081.67" y1="1153.72" x2="897.81" y2="1153.72" gradientTransform="matrix(1,0,0,1,0,0)" xlink:href="#linear-gradient-2"/>
    <linearGradient id="linear-gradient-24" x1="2008.79" y1="1153.61" x2="881.81" y2="1153.61" gradientTransform="matrix(1,0,0,1,0,0)" xlink:href="#linear-gradient-2"/>
    <linearGradient id="linear-gradient-25" x1="1937.98" y1="1153.51" x2="880.28" y2="1153.51" gradientTransform="matrix(1,0,0,1,0,0)" xlink:href="#linear-gradient-2"/>
    <linearGradient id="linear-gradient-26" x1="1874.74" y1="1153.41" x2="895.18" y2="1153.41" gradientTransform="matrix(1,0,0,1,0,0)" xlink:href="#linear-gradient-2"/>
    <linearGradient id="linear-gradient-27" x1="1877.37" y1="1153.31" x2="890.75" y2="1153.31" gradientTransform="matrix(1,0,0,1,0,0)" xlink:href="#linear-gradient-2"/>
    <linearGradient id="linear-gradient-28" x1="1910.52" y1="1153.21" x2="845.77" y2="1153.21" gradientTransform="matrix(1,0,0,1,0,0)" xlink:href="#linear-gradient-2"/>
    <linearGradient id="linear-gradient-29" x1="1925.11" y1="1153.11" x2="791.08" y2="1153.11" gradientTransform="matrix(1,0,0,1,0,0)" xlink:href="#linear-gradient-2"/>
    <linearGradient id="linear-gradient-30" x1="1922.25" y1="1153.01" x2="731.3" y2="1153.01" gradientTransform="matrix(1,0,0,1,0,0)" xlink:href="#linear-gradient-2"/>
    <linearGradient id="linear-gradient-31" x1="1904.34" y1="1152.91" x2="672.44" y2="1152.91" gradientTransform="matrix(1,0,0,1,0,0)" xlink:href="#linear-gradient-2"/>
    <linearGradient id="linear-gradient-32" x1="1875.16" y1="1152.81" x2="621.72" y2="1152.81" gradientTransform="matrix(1,0,0,1,0,0)" xlink:href="#linear-gradient-2"/>
    <linearGradient id="linear-gradient-33" x1="1839.76" y1="1152.71" x2="587.77" y2="1152.71" gradientTransform="matrix(1,0,0,1,0,0)" xlink:href="#linear-gradient-2"/>
    <linearGradient id="linear-gradient-34" x1="2208.28" y1="1211.47" x2="956.45" y2="1211.47" gradientTransform="matrix(1,0,0,1,0,0)" xlink:href="#linear-gradient-2"/>
    <linearGradient id="linear-gradient-35" x1="2202.08" y1="1211.19" x2="926.49" y2="1211.19" gradientTransform="matrix(1,0,0,1,0,0)" xlink:href="#linear-gradient-2"/>
    <linearGradient id="linear-gradient-36" x1="2167.32" y1="1210.91" x2="894.81" y2="1210.91" gradientTransform="matrix(1,0,0,1,0,0)" xlink:href="#linear-gradient-2"/>
    <linearGradient id="linear-gradient-37" x1="2114.23" y1="1210.63" x2="868.08" y2="1210.63" gradientTransform="matrix(1,0,0,1,0,0)" xlink:href="#linear-gradient-2"/>
    <linearGradient id="linear-gradient-38" x1="2051.65" y1="1210.35" x2="851.59" y2="1210.35" gradientTransform="matrix(1,0,0,1,0,0)" xlink:href="#linear-gradient-2"/>
    <linearGradient id="linear-gradient-39" x1="1987.09" y1="1210.07" x2="849.37" y2="1210.07" gradientTransform="matrix(1,0,0,1,0,0)" xlink:href="#linear-gradient-2"/>
    <linearGradient id="linear-gradient-40" x1="1927.3" y1="1209.79" x2="863.87" y2="1209.79" gradientTransform="matrix(1,0,0,1,0,0)" xlink:href="#linear-gradient-2"/>
    <linearGradient id="linear-gradient-41" x1="1939.61" y1="1209.51" x2="853.44" y2="1209.51" gradientTransform="matrix(1,0,0,1,0,0)" xlink:href="#linear-gradient-2"/>
    <linearGradient id="linear-gradient-42" x1="1970.3" y1="1209.23" x2="809.11" y2="1209.23" gradientTransform="matrix(1,0,0,1,0,0)" xlink:href="#linear-gradient-2"/>
    <linearGradient id="linear-gradient-43" x1="1980.98" y1="1208.95" x2="757.47" y2="1208.95" gradientTransform="matrix(1,0,0,1,0,0)" xlink:href="#linear-gradient-2"/>
    <linearGradient id="linear-gradient-44" x1="1973.48" y1="1208.67" x2="703.84" y2="1208.67" gradientTransform="matrix(1,0,0,1,0,0)" xlink:href="#linear-gradient-2"/>
    <linearGradient id="linear-gradient-45" x1="1950.93" y1="1208.39" x2="654.96" y2="1208.39" gradientTransform="matrix(1,0,0,1,0,0)" xlink:href="#linear-gradient-2"/>
    <linearGradient id="linear-gradient-46" x1="1884.26" y1="1208" x2="821.58" y2="1208" gradientTransform="matrix(1,0,0,1,0,0)" xlink:href="#linear-gradient-2"/>
    <linearGradient id="linear-gradient-47" x1="1942.94" y1="1267.6" x2="871.36" y2="1267.6" gradientTransform="matrix(1,0,0,1,0,0)" xlink:href="#linear-gradient-2"/>
    <linearGradient id="linear-gradient-48" x1="2183.86" y1="1267.08" x2="865.18" y2="1267.08" gradientTransform="matrix(1,0,0,1,0,0)" xlink:href="#linear-gradient-2"/>
    <linearGradient id="linear-gradient-49" x1="2147.27" y1="1266.72" x2="838.95" y2="1266.72" gradientTransform="matrix(1,0,0,1,0,0)" xlink:href="#linear-gradient-2"/>
    <linearGradient id="linear-gradient-50" x1="2096.17" y1="1266.37" x2="821.8" y2="1266.37" gradientTransform="matrix(1,0,0,1,0,0)" xlink:href="#linear-gradient-2"/>
    <linearGradient id="linear-gradient-51" x1="2038.79" y1="1266.01" x2="818.44" y2="1266.01" gradientTransform="matrix(1,0,0,1,0,0)" xlink:href="#linear-gradient-2"/>
    <linearGradient id="linear-gradient-52" x1="1985.2" y1="1265.66" x2="830.98" y2="1265.66" gradientTransform="matrix(1,0,0,1,0,0)" xlink:href="#linear-gradient-2"/>
    <linearGradient id="linear-gradient-53" x1="1999.42" y1="1265.3" x2="818.95" y2="1265.3" gradientTransform="matrix(1,0,0,1,0,0)" xlink:href="#linear-gradient-2"/>
    <linearGradient id="linear-gradient-54" x1="2027.48" y1="1264.95" x2="776.47" y2="1264.95" gradientTransform="matrix(1,0,0,1,0,0)" xlink:href="#linear-gradient-2"/>
    <linearGradient id="linear-gradient-55" x1="2034.35" y1="1264.59" x2="729.32" y2="1264.59" gradientTransform="matrix(1,0,0,1,0,0)" xlink:href="#linear-gradient-2"/>
    <linearGradient id="linear-gradient-56" x1="2022.57" y1="1264.24" x2="683.57" y2="1264.24" gradientTransform="matrix(1,0,0,1,0,0)" xlink:href="#linear-gradient-2"/>
    <linearGradient id="linear-gradient-57" x1="1995.98" y1="1263.89" x2="646.63" y2="1263.89" gradientTransform="matrix(1,0,0,1,0,0)" xlink:href="#linear-gradient-2"/>
    <linearGradient id="linear-gradient-58" x1="1959.78" y1="1263.53" x2="627.19" y2="1263.53" gradientTransform="matrix(1,0,0,1,0,0)" xlink:href="#linear-gradient-2"/>
    <linearGradient id="linear-gradient-59" x1="1920.46" y1="1263.18" x2="635.29" y2="1263.18" gradientTransform="matrix(1,0,0,1,0,0)" xlink:href="#linear-gradient-2"/>
    <linearGradient id="linear-gradient-60" x1="2133.58" y1="1320.86" x2="882.11" y2="1320.86" gradientTransform="matrix(1,0,0,1,0,0)" xlink:href="#linear-gradient-2"/>
    <linearGradient id="linear-gradient-61" x1="2186.65" y1="1320.72" x2="862.74" y2="1320.72" gradientTransform="matrix(1,0,0,1,0,0)" xlink:href="#linear-gradient-2"/>
    <linearGradient id="linear-gradient-62" x1="2198.04" y1="1320.58" x2="836.18" y2="1320.58" gradientTransform="matrix(1,0,0,1,0,0)" xlink:href="#linear-gradient-2"/>
    <linearGradient id="linear-gradient-63" x1="2179.39" y1="1320.44" x2="810.53" y2="1320.44" gradientTransform="matrix(1,0,0,1,0,0)" xlink:href="#linear-gradient-2"/>
    <linearGradient id="linear-gradient-64" x1="2140.95" y1="1320.3" x2="792.52" y2="1320.3" gradientTransform="matrix(1,0,0,1,0,0)" xlink:href="#linear-gradient-2"/>
    <linearGradient id="linear-gradient-65" x1="2037.47" y1="1319.74" x2="801.53" y2="1319.74" gradientTransform="matrix(1,0,0,1,0,0)" xlink:href="#linear-gradient-2"/>
    <linearGradient id="linear-gradient-66" x1="2083.83" y1="1319.6" x2="706.76" y2="1319.6" gradientTransform="matrix(1,0,0,1,0,0)" xlink:href="#linear-gradient-2"/>
    <linearGradient id="linear-gradient-67" x1="2068.11" y1="1319.46" x2="670.59" y2="1319.46" gradientTransform="matrix(1,0,0,1,0,0)" xlink:href="#linear-gradient-2"/>
    <linearGradient id="linear-gradient-68" x1="2038.08" y1="1319.32" x2="647.57" y2="1319.32" gradientTransform="matrix(1,0,0,1,0,0)" xlink:href="#linear-gradient-2"/>
    <linearGradient id="linear-gradient-69" x1="1999.66" y1="1319.18" x2="647.11" y2="1319.18" gradientTransform="matrix(1,0,0,1,0,0)" xlink:href="#linear-gradient-2"/>
    <linearGradient id="linear-gradient-70" x1="1960.06" y1="1319.04" x2="679.94" y2="1319.04" gradientTransform="matrix(1,0,0,1,0,0)" xlink:href="#linear-gradient-2"/>
    <linearGradient id="linear-gradient-71" x1="1276.16" y1="1037.69" x2="1276.16" y2="-22.46" gradientUnits="userSpaceOnUse">
      <stop offset="0" stop-color="#e7e7e7"/>
      <stop offset="1" stop-color="#fff"/>
    </linearGradient>
    <linearGradient id="linear-gradient-72" x1="1276.16" y1="135.32" x2="1276.16" y2="-2.93" gradientUnits="userSpaceOnUse">
      <stop offset="0" stop-color="#f58b21"/>
      <stop offset="1" stop-color="#f5b419"/>
    </linearGradient>
    <linearGradient id="linear-gradient-73" x1="2076.46" y1="916.81" x2="429.88" y2="916.81" gradientUnits="userSpaceOnUse">
      <stop offset="0" stop-color="#f58b21"/>
      <stop offset="1" stop-color="#b75f08"/>
    </linearGradient>
    <linearGradient id="linear-gradient-74" x1="1002.16" y1="1178.9" x2="1639.81" y2="621.91" xlink:href="#linear-gradient-72"/>
    <linearGradient id="linear-gradient-75" x1="497.83" y1="949.02" x2="2032.84" y2="949.02" gradientUnits="userSpaceOnUse">
      <stop offset="0" stop-color="#efeff6"/>
      <stop offset="1" stop-color="#cecfe6"/>
    </linearGradient>
    <linearGradient id="linear-gradient-76" x1="1402.38" y1="1342.27" x2="1913.72" y2="895.62" xlink:href="#linear-gradient-72"/>
    <linearGradient id="linear-gradient-77" x1="-255.02" y1="672.33" x2="-184.84" y2="554.95" gradientTransform="translate(2314.83 1665.34) rotate(112.48)" xlink:href="#linear-gradient-72"/>
    <linearGradient id="linear-gradient-78" x1="540.1" y1="-179.94" x2="409.01" y2="-123.49" gradientTransform="translate(1767.04 477.95) rotate(69.71)" xlink:href="#linear-gradient-2"/>
    <linearGradient id="linear-gradient-79" x1="548.18" y1="-173.66" x2="417.09" y2="-117.21" gradientTransform="translate(1767.04 477.95) rotate(69.71)" xlink:href="#linear-gradient"/>
    <linearGradient id="linear-gradient-80" x1="547.32" y1="-175.65" x2="416.23" y2="-119.2" gradientTransform="translate(1767.04 477.95) rotate(69.71)" gradientUnits="userSpaceOnUse">
      <stop offset="0" stop-color="#505faa"/>
      <stop offset=".42" stop-color="#fff"/>
      <stop offset="1" stop-color="#bcbedd"/>
    </linearGradient>
    <linearGradient id="linear-gradient-81" x1="1078.01" y1="-179.13" x2="946.91" y2="-122.67" gradientTransform="translate(2426.67 2260.16) rotate(-110.29) scale(1 -1)" xlink:href="#linear-gradient-2"/>
    <linearGradient id="linear-gradient-82" x1="1086.09" y1="-172.85" x2="954.98" y2="-116.39" gradientTransform="translate(2426.67 2260.16) rotate(-110.29) scale(1 -1)" xlink:href="#linear-gradient"/>
    <linearGradient id="linear-gradient-83" x1="1085.23" y1="-174.84" x2="954.13" y2="-118.38" gradientTransform="translate(2426.67 2260.16) rotate(-110.29) scale(1 -1)" xlink:href="#linear-gradient-80"/>
    <linearGradient id="linear-gradient-84" x1="530.97" y1="-72.37" x2="826.57" y2="-72.37" gradientTransform="translate(1767.04 477.95) rotate(69.71)" xlink:href="#linear-gradient"/>
    <linearGradient id="linear-gradient-85" x1="861.78" y1="-346.92" x2="507.64" y2="-346.92" gradientTransform="translate(1767.04 477.95) rotate(69.71)" gradientUnits="userSpaceOnUse">
      <stop offset="0" stop-color="#adafd6"/>
      <stop offset=".58" stop-color="#dfe2ed"/>
      <stop offset="1" stop-color="#fff"/>
    </linearGradient>
    <linearGradient id="linear-gradient-86" x1="821.12" y1="-681.28" x2="578.93" y2="-681.28" gradientTransform="translate(1767.04 477.95) rotate(69.71)" xlink:href="#linear-gradient"/>
    <linearGradient id="linear-gradient-87" x1="668.56" y1="-114.84" x2="767.26" y2="-52.25" gradientTransform="translate(1767.04 477.95) rotate(69.71)" xlink:href="#linear-gradient-2"/>
    <linearGradient id="linear-gradient-88" x1="665.02" y1="-113.94" x2="760.52" y2="-53.37" gradientTransform="translate(1767.04 477.95) rotate(69.71)" xlink:href="#linear-gradient"/>
    <linearGradient id="linear-gradient-89" x1="665.03" y1="-113.96" x2="760.54" y2="-53.39" xlink:href="#linear-gradient-80"/>
    <linearGradient id="linear-gradient-90" x1="616.08" y1="-472.82" x2="805.06" y2="-318.11" gradientTransform="translate(1977.24 290.23) rotate(90)" xlink:href="#linear-gradient-2"/>
    <linearGradient id="linear-gradient-91" x1="686.81" y1="-310.7" x2="676.87" y2="-483.09" gradientTransform="translate(1977.95 294.21) rotate(90)" xlink:href="#linear-gradient"/>
    <linearGradient id="linear-gradient-92" x1="585.74" y1="-366.03" x2="776.61" y2="-366.03" gradientTransform="translate(1767.04 477.95) rotate(69.71)" gradientUnits="userSpaceOnUse">
      <stop offset="0" stop-color="#f58b21"/>
      <stop offset="1" stop-color="#a06608"/>
    </linearGradient>
    <linearGradient id="linear-gradient-93" x1="681.18" y1="-486.82" x2="681.18" y2="-359.72" gradientTransform="translate(1767.04 477.95) rotate(69.71)" xlink:href="#linear-gradient-72"/>
    <linearGradient id="linear-gradient-94" x1="824.82" y1="-460.75" x2="563.94" y2="-456.3" gradientTransform="translate(1767.04 477.95) rotate(69.71)" gradientUnits="userSpaceOnUse">
      <stop offset="0" stop-color="#505faa"/>
      <stop offset=".54" stop-color="#fff"/>
      <stop offset="1" stop-color="#bcbedd"/>
    </linearGradient>
  </defs>
  <g id="Layer_4" data-name="Layer 4">
    <g>
      <g class="cls-152">
        <path class="cls-63" d="M1965.07,1538.13c22.85,121.7-282.03,226.56-680.97,234.2-398.94,7.64-740.87-84.83-763.72-206.53-22.85-121.7,282.03-226.56,680.97-234.2,398.94-7.64,740.87,84.83,763.72,206.53Z"/>
        <path class="cls-14" d="M1958.86,1536.57c22.62,120.45-279.41,224.21-674.6,231.76-395.19,7.55-733.89-83.97-756.5-204.42-22.62-120.45,279.41-224.21,674.6-231.76,395.19-7.55,733.89,83.97,756.5,204.42Z"/>
        <path class="cls-13" d="M1952.64,1535.01c22.38,119.19-276.8,221.87-668.24,229.32-391.44,7.46-726.9-83.12-749.28-202.32-22.38-119.19,276.8-221.87,668.24-229.32,391.44-7.46,726.9,83.12,749.28,202.32Z"/>
        <path class="cls-62" d="M1946.43,1533.46c22.14,117.94-274.19,219.52-661.88,226.89-387.69,7.37-719.91-82.27-742.05-200.21-22.14-117.94,274.19-219.52,661.88-226.89,387.69-7.37,719.91,82.27,742.05,200.21Z"/>
        <path class="cls-61" d="M1940.21,1531.9c21.9,116.68-271.58,217.17-655.52,224.45-383.93,7.27-712.93-81.42-734.83-198.1-21.9-116.68,271.58-217.17,655.52-224.45,383.93-7.27,712.93,81.42,734.83,198.1Z"/>
        <path class="cls-57" d="M1934,1530.34c21.66,115.43-268.97,214.83-649.15,222.01-380.18,7.18-705.94-80.57-727.61-196-21.66-115.43,268.97-214.83,649.15-222.01,380.18-7.18,705.94,80.57,727.61,196Z"/>
        <path class="cls-60" d="M1927.78,1528.78c21.43,114.17-266.36,212.48-642.79,219.57-376.43,7.09-698.96-79.72-720.38-193.89-21.43-114.17,266.36-212.48,642.79-219.57,376.43-7.09,698.96,79.72,720.38,193.89Z"/>
        <path class="cls-58" d="M1921.57,1527.23c21.19,112.92-263.75,210.13-636.43,217.13-372.68,7-691.97-78.86-713.16-191.78-21.19-112.92,263.75-210.13,636.43-217.13,372.68-7,691.97,78.86,713.16,191.78Z"/>
        <path class="cls-59" d="M1915.36,1525.67c20.95,111.66-261.14,207.79-630.07,214.7-368.93,6.91-684.98-78.01-705.93-189.68-20.95-111.66,261.14-207.79,630.07-214.7,368.93-6.91,684.98,78.01,705.93,189.68Z"/>
        <path class="cls-51" d="M1909.14,1524.11c20.71,110.41-258.53,205.44-623.71,212.26-365.18,6.82-678-77.16-698.71-187.57-20.71-110.41,258.53-205.44,623.71-212.26,365.18-6.82,678,77.16,698.71,187.57Z"/>
        <path class="cls-49" d="M1902.93,1522.55c20.47,109.15-255.92,203.09-617.34,209.82-361.42,6.73-671.01-76.31-691.49-185.46-20.47-109.15,255.92-203.09,617.34-209.82,361.42-6.73,671.01,76.31,691.49,185.46Z"/>
        <path class="cls-45" d="M1896.71,1521c20.24,107.9-253.31,200.75-610.98,207.38-357.67,6.63-664.03-75.46-684.26-183.36-20.24-107.9,253.31-200.75,610.98-207.38,357.67-6.63,664.03,75.46,684.26,183.36Z"/>
        <path class="cls-55" d="M1890.5,1519.44c20,106.64-250.7,198.4-604.62,204.94-353.92,6.54-657.04-74.61-677.04-181.25-20-106.64,250.7-198.4,604.62-204.94,353.92-6.54,657.04,74.61,677.04,181.25Z"/>
        <path class="cls-56" d="M1884.28,1517.88c19.76,105.39-248.09,196.05-598.26,202.5-350.17,6.45-650.05-73.75-669.82-179.14-19.76-105.39,248.09-196.05,598.26-202.5,350.17-6.45,650.05,73.75,669.82,179.14Z"/>
        <path class="cls-52" d="M1878.07,1516.32c19.52,104.13-245.48,193.71-591.89,200.07-346.42,6.36-643.07-72.9-662.59-177.04-19.52-104.13,245.48-193.71,591.89-200.07,346.42-6.36,643.07,72.9,662.59,177.04Z"/>
        <path class="cls-53" d="M1871.86,1514.77c19.28,102.88-242.87,191.36-585.53,197.63-342.67,6.27-636.08-72.05-655.37-174.93-19.28-102.88,242.87-191.36,585.53-197.63,342.67-6.27,636.08,72.05,655.37,174.93Z"/>
        <path class="cls-54" d="M1865.64,1513.21c19.05,101.62-240.26,189.01-579.17,195.19-338.91,6.18-629.1-71.2-648.14-172.82-19.05-101.62,240.26-189.01,579.17-195.19,338.91-6.18,629.1,71.2,648.14,172.82Z"/>
        <path class="cls-50" d="M1859.43,1511.65c18.81,100.37-237.65,186.67-572.81,192.75-335.16,6.08-622.11-70.35-640.92-170.72-18.81-100.37,237.65-186.67,572.81-192.75,335.16-6.08,622.11,70.35,640.92,170.72Z"/>
        <path class="cls-38" d="M1853.21,1510.09c18.57,99.11-235.04,184.32-566.45,190.31-331.41,5.99-615.13-69.5-633.7-168.61-18.57-99.11,235.04-184.32,566.45-190.31,331.41-5.99,615.13,69.5,633.7,168.61Z"/>
        <path class="cls-33" d="M1847,1508.54c18.33,97.86-232.43,181.97-560.08,187.88-327.66,5.9-608.14-68.64-626.47-166.5-18.33-97.86,232.43-181.97,560.08-187.88,327.66-5.9,608.14,68.64,626.47,166.5Z"/>
        <path class="cls-34" d="M1840.78,1506.98c18.09,96.6-229.81,179.63-553.72,185.44-323.91,5.81-601.15-67.79-619.25-164.4-18.09-96.6,229.81-179.63,553.72-185.44,323.91-5.81,601.15,67.79,619.25,164.4Z"/>
        <path class="cls-35" d="M1834.57,1505.42c17.86,95.35-227.2,177.28-547.36,183-320.16,5.72-594.17-66.94-612.02-162.29-17.86-95.35,227.2-177.28,547.36-183,320.16-5.72,594.17,66.94,612.02,162.29Z"/>
        <path class="cls-27" d="M1828.35,1503.86c17.62,94.09-224.59,174.93-541,180.56-316.4,5.63-587.18-66.09-604.8-160.18-17.62-94.09,224.59-174.93,541-180.56,316.4-5.63,587.18,66.09,604.8,160.18Z"/>
        <path class="cls-30" d="M1822.14,1502.31c17.38,92.84-221.98,172.59-534.64,178.12-312.65,5.54-580.2-65.24-597.58-158.08-17.38-92.84,221.98-172.59,534.64-178.12,312.65-5.54,580.2,65.24,597.58,158.08Z"/>
        <path class="cls-46" d="M1815.93,1500.75c17.14,91.58-219.37,170.24-528.27,175.68-308.9,5.44-573.21-64.39-590.35-155.97-17.14-91.58,219.37-170.24,528.27-175.68,308.9-5.44,573.21,64.39,590.35,155.97Z"/>
        <path class="cls-47" d="M1809.71,1499.19c16.91,90.33-216.76,167.89-521.91,173.25-305.15,5.35-566.22-63.53-583.13-153.86-16.91-90.33,216.76-167.89,521.91-173.25,305.15-5.35,566.22,63.53,583.13,153.86Z"/>
        <path class="cls-48" d="M1803.5,1497.63c16.67,89.07-214.15,165.55-515.55,170.81-301.4,5.26-559.24-62.68-575.91-151.76-16.67-89.07,214.15-165.55,515.55-170.81,301.4-5.26,559.24,62.68,575.91,151.76Z"/>
        <path class="cls-41" d="M1797.28,1496.08c16.43,87.82-211.54,163.2-509.19,168.37-297.65,5.17-552.25-61.83-568.68-149.65-16.43-87.82,211.54-163.2,509.19-168.37,297.65-5.17,552.25,61.83,568.68,149.65Z"/>
        <path class="cls-40" d="M1791.07,1494.52c16.19,86.56-208.93,160.85-502.82,165.93-293.89,5.08-545.27-60.98-561.46-147.54-16.19-86.56,208.93-160.85,502.82-165.93,293.89-5.08,545.27,60.98,561.46,147.54Z"/>
        <path class="cls-39" d="M1784.85,1492.96c15.95,85.31-206.32,158.51-496.46,163.49-290.14,4.99-538.28-60.13-554.23-145.43-15.95-85.31,206.32-158.51,496.46-163.49,290.14-4.99,538.28,60.13,554.23,145.43Z"/>
        <path class="cls-43" d="M1778.64,1491.4c15.72,84.05-203.71,156.16-490.1,161.05-286.39,4.9-531.3-59.28-547.01-143.33-15.72-84.05,203.71-156.16,490.1-161.05,286.39-4.9,531.3,59.28,547.01,143.33Z"/>
        <path class="cls-42" d="M1772.43,1489.85c15.48,82.8-201.1,153.81-483.74,158.62-282.64,4.8-524.31-58.42-539.79-141.22-15.48-82.8,201.1-153.81,483.74-158.62,282.64-4.8,524.31,58.42,539.79,141.22Z"/>
        <path class="cls-44" d="M1766.21,1488.29c15.24,81.54-198.49,151.47-477.38,156.18-278.89,4.71-517.32-57.57-532.56-139.11-15.24-81.54,198.49-151.47,477.38-156.18,278.89-4.71,517.32,57.57,532.56,139.11Z"/>
        <path class="cls-37" d="M1760,1486.73c15,80.29-195.88,149.12-471.01,153.74-275.14,4.62-510.34-56.72-525.34-137.01-15-80.29,195.88-149.12,471.01-153.74,275.14-4.62,510.34,56.72,525.34,137.01Z"/>
        <path class="cls-36" d="M1753.78,1485.17c14.76,79.03-193.27,146.77-464.65,151.3-271.38,4.53-503.35-55.87-518.12-134.9-14.76-79.03,193.27-146.77,464.65-151.3,271.38-4.53,503.35,55.87,518.12,134.9Z"/>
        <path class="cls-25" d="M1747.57,1483.62c14.53,77.78-190.66,144.43-458.29,148.86-267.63,4.44-496.37-55.02-510.89-132.79-14.53-77.78,190.66-144.43,458.29-148.86,267.63-4.44,496.37,55.02,510.89,132.79Z"/>
        <path class="cls-24" d="M1741.35,1482.06c14.29,76.52-188.05,142.08-451.93,146.43-263.88,4.35-489.38-54.16-503.67-130.69-14.29-76.52,188.05-142.08,451.93-146.43,263.88-4.35,489.38,54.16,503.67,130.69Z"/>
        <path class="cls-23" d="M1735.14,1480.5c14.05,75.27-185.44,139.73-445.57,143.99-260.13,4.25-482.39-53.31-496.44-128.58-14.05-75.27,185.44-139.73,445.57-143.99,260.13-4.25,482.39,53.31,496.44,128.58Z"/>
        <path class="cls-17" d="M1728.93,1478.94c13.81,74.01-182.83,137.39-439.2,141.55-256.38,4.16-475.41-52.46-489.22-126.47-13.81-74.01,182.83-137.39,439.2-141.55,256.38-4.16,475.41,52.46,489.22,126.47Z"/>
        <path class="cls-26" d="M1722.71,1477.39c13.57,72.76-180.22,135.04-432.84,139.11-252.63,4.07-468.42-51.61-482-124.37-13.57-72.76,180.22-135.04,432.84-139.11,252.63-4.07,468.42,51.61,482,124.37Z"/>
        <path class="cls-18" d="M1716.5,1475.83c13.34,71.5-177.6,132.69-426.48,136.67-248.87,3.98-461.44-50.76-474.77-122.26-13.34-71.5,177.6-132.69,426.48-136.67,248.87-3.98,461.44,50.76,474.77,122.26Z"/>
        <path class="cls-20" d="M1710.28,1474.27c13.1,70.25-174.99,130.35-420.12,134.23-245.12,3.89-454.45-49.91-467.55-120.15-13.1-70.25,174.99-130.35,420.12-134.23,245.12-3.89,454.45,49.91,467.55,120.15Z"/>
        <path class="cls-19" d="M1704.07,1472.71c12.86,68.99-172.38,128-413.75,131.8-241.37,3.8-447.46-49.05-460.32-118.05-12.86-68.99,172.38-128,413.75-131.8,241.37-3.8,447.46,49.05,460.32,118.05Z"/>
        <path class="cls-22" d="M1697.85,1471.16c12.62,67.74-169.77,125.65-407.39,129.36-237.62,3.71-440.48-48.2-453.1-115.94-12.62-67.74,169.77-125.65,407.39-129.36,237.62-3.71,440.48,48.2,453.1,115.94Z"/>
        <path class="cls-15" d="M1691.64,1469.6c12.38,66.48-167.16,123.31-401.03,126.92-233.87,3.61-433.49-47.35-445.88-113.83-12.38-66.48,167.16-123.31,401.03-126.92,233.87-3.61,433.49,47.35,445.88,113.83Z"/>
        <path class="cls-21" d="M1685.42,1468.04c12.15,65.23-164.55,120.96-394.67,124.48-230.12,3.52-426.51-46.5-438.65-111.73-12.15-65.23,164.55-120.96,394.67-124.48,230.12-3.52,426.51,46.5,438.65,111.73Z"/>
        <path class="cls-16" d="M1679.21,1466.48c11.91,63.97-161.94,118.61-388.31,122.04-226.36,3.43-419.52-45.65-431.43-109.62-11.91-63.97,161.94-118.61,388.31-122.04,226.36-3.43,419.52,45.65,431.43,109.62Z"/>
        <path class="cls-29" d="M1673,1464.93c11.67,62.72-159.33,116.27-381.94,119.61-222.61,3.34-412.54-44.8-424.21-107.51-11.67-62.72,159.33-116.27,381.94-119.61,222.61-3.34,412.54,44.8,424.21,107.51Z"/>
        <path class="cls-28" d="M1666.78,1463.37c11.43,61.46-156.72,113.92-375.58,117.17-218.86,3.25-405.55-43.94-416.98-105.41-11.43-61.46,156.72-113.92,375.58-117.17,218.86-3.25,405.55,43.94,416.98,105.41Z"/>
        <path class="cls-32" d="M1660.57,1461.81c11.19,60.21-154.11,111.57-369.22,114.73-215.11,3.16-398.56-43.09-409.76-103.3-11.19-60.21,154.11-111.57,369.22-114.73,215.11-3.16,398.56,43.09,409.76,103.3Z"/>
        <path class="cls-31" d="M1654.35,1460.26c10.96,58.95-151.5,109.23-362.86,112.29-211.36,3.06-391.58-42.24-402.53-101.19-10.96-58.95,151.5-109.23,362.86-112.29,211.36-3.06,391.58,42.24,402.53,101.19Z"/>
        <path class="cls-12" d="M1648.14,1458.7c10.72,57.7-148.89,106.88-356.49,109.85-207.61,2.97-384.59-41.39-395.31-99.09-10.72-57.7,148.89-106.88,356.49-109.85,207.61-2.97,384.59,41.39,395.31,99.09Z"/>
      </g>
      <rect class="cls-64" x="689.22" y="162.12" width="1152.22" height="868.01" rx="80.5" ry="80.5"/>
      <path class="cls-11" d="M924.99,33.23h680.67c28.85,0,52.27,23.42,52.27,52.27v993.07c0,28.84-23.42,52.26-52.26,52.26h-680.69c-28.84,0-52.26-23.42-52.26-52.26V85.5c0-28.85,23.42-52.27,52.27-52.27Z" transform="translate(1847.37 -683.29) rotate(90)"/>
      <g>
        <g>
          <path class="cls-10" d="M2105.01,1504.88l-230.19-356.09c-23.85-36.89-64.77-59.16-108.69-59.16h-1001.59c-43.92,0-84.85,22.28-108.7,59.16l-230.19,356.09c-25.32,39.18,2.8,90.84,49.45,90.84h1580.47c46.65,0,74.77-51.66,49.45-90.84Z"/>
          <path class="cls-9" d="M2105.01,1500.44l-230.19-356.09c-23.85-36.89-64.77-59.16-108.69-59.16h-1001.59c-43.92,0-84.85,22.28-108.7,59.16l-230.19,356.09c-25.32,39.18,2.8,90.84,49.45,90.84h1580.47c46.65,0,74.77-51.66,49.45-90.84Z"/>
          <path class="cls-6" d="M2105.01,1445.39l-230.19-356.09c-23.85-36.89-64.77-59.16-108.69-59.16h-1001.59c-43.92,0-84.85,22.28-108.7,59.16l-230.19,356.09c-25.32,39.18,2.8,90.84,49.45,90.84h1580.47c46.65,0,74.77-51.66,49.45-90.84Z"/>
          <path class="cls-66" d="M2055.56,1531.58H475.1c-33.85,0-57.82-27.22-58.82-57.12-1.5,31.67,23.22,61.77,58.82,61.77h1580.47c35.6,0,60.32-30.1,58.82-61.77-1,29.9-24.97,57.12-58.82,57.12Z"/>
        </g>
        <g>
          <path class="cls-7" d="M790.09,1078.73h-59.06c-10.45,14.74-15.71,22.31-26.24,37.65,23.7,0,35.59,0,59.42,0,10.37-15.32,15.55-22.89,25.88-37.65Z"/>
          <path class="cls-5" d="M785.23,1116.37c23.88,0,35.85,0,59.85,0,9.63-15.29,14.46-22.86,24.11-37.64h-58.4c-10.21,14.76-15.32,22.34-25.55,37.65Z"/>
          <path class="cls-4" d="M866.24,1116.37c24.03,0,36.07,0,60.2,0,8.4-15.27,12.62-22.83,21.09-37.64h-57.86c-9.39,14.79-14.08,22.36-23.44,37.64Z"/>
          <path class="cls-8" d="M947.7,1116.37c24.15,0,36.25,0,60.48,0,6.77-15.25,10.18-22.8,17.06-37.64h-57.42c-8.09,14.81-12.12,22.38-20.13,37.64Z"/>
          <path class="cls-77" d="M1029.54,1116.36c24.25,0,36.39,0,60.69,0,4.82-15.22,7.28-22.78,12.27-37.63h-57.09c-6.42,14.84-9.59,22.4-15.88,37.64Z"/>
          <path class="cls-78" d="M1179.45,1078.73h-56.87c-4.47,14.86-6.65,22.42-10.93,37.63,24.32,0,36.49,0,60.83,0,2.68-15.2,4.06-22.75,6.96-37.63Z"/>
          <path class="cls-79" d="M1256.23,1078.73h-56.76c-2.33,14.89-3.43,22.44-5.52,37.63,24.35,0,36.54,0,60.9,0,.42-15.17.68-22.72,1.38-37.63Z"/>
          <path class="cls-80" d="M1332.98,1078.73h-56.76c-.11,14.91-.08,22.46.09,37.63,24.37,0,36.55,0,60.91,0-1.86-15.15-2.72-22.69-4.24-37.62Z"/>
          <path class="cls-82" d="M1358.68,1116.35c24.35,0,36.52,0,60.83,0-4.04-15.13-5.99-22.66-9.65-37.62h-56.87c2.09,14.94,3.24,22.48,5.68,37.62Z"/>
          <path class="cls-93" d="M1440.93,1116.35c24.3,0,36.44,0,60.69,0-6.05-15.1-8.98-22.63-14.6-37.62h-57.09c4.19,14.97,6.41,22.5,10.99,37.62Z"/>
          <path class="cls-94" d="M1522.98,1116.34c24.23,0,36.33,0,60.48,0-7.77-15.08-11.56-22.61-18.85-37.61h-57.42c6.08,14.99,9.26,22.52,15.78,37.62Z"/>
          <path class="cls-95" d="M1604.73,1116.34c24.13,0,36.17,0,60.2,0-9.12-15.06-13.57-22.58-22.15-37.61h-57.85c7.66,15.02,11.65,22.54,19.81,37.61Z"/>
          <path class="cls-96" d="M1721.66,1078.73h-58.4c8.84,15.04,13.43,22.56,22.83,37.61,23.99,0,35.97,0,59.85,0-9.99-15.03-14.87-22.55-24.27-37.61Z"/>
          <path class="cls-81" d="M1742.36,1078.73c9.52,15.07,14.47,22.58,24.6,37.61,23.83,0,35.72,0,59.42,0-10.29-15.01-15.31-22.52-24.96-37.61h-59.06Z"/>
          <path class="cls-84" d="M752.05,1134.45c-23.99.01-35.92.02-59.62.03-10.54,15.52-15.82,23.39-26.35,39.1,23.71-.05,35.74-.07,60.09-.12,10.33-15.67,15.52-23.52,25.88-39.01Z"/>
          <path class="cls-83" d="M747.71,1173.42c24.56-.05,36.99-.07,62.1-.12,9.55-15.62,14.35-23.44,23.97-38.89-24.34.01-36.46.02-60.55.03-10.22,15.48-15.34,23.32-25.52,38.98Z"/>
          <path class="cls-85" d="M832.01,1173.26c25.28-.05,38.05-.07,63.78-.12,8.28-15.57,12.44-23.35,20.81-38.77-24.63.01-36.9.02-61.33.03-9.33,15.44-13.99,23.25-23.26,38.86Z"/>
          <path class="cls-86" d="M918.53,1173.1c25.87-.05,38.91-.07,65.12-.12,6.6-15.51,9.92-23.27,16.63-38.65-24.86.01-37.25.02-61.95.03-7.97,15.4-11.93,23.19-19.8,38.74Z"/>
          <path class="cls-102" d="M1006.79,1172.94c26.32-.05,39.56-.07,66.13-.12,4.61-15.46,6.95-23.19,11.7-38.53-25.02.01-37.51.02-62.41.03-6.23,15.36-9.31,23.12-15.41,38.62Z"/>
          <path class="cls-88" d="M1169.4,1134.25c-25.12.01-37.67.02-62.73.03-4.2,15.33-6.26,23.05-10.32,38.5,26.64-.05,40.01-.07,66.8-.12,2.42-15.4,3.66-23.11,6.24-38.41Z"/>
          <path class="cls-103" d="M1254.43,1134.21c-25.16.01-37.74.02-62.88.03-2,15.29-2.94,22.98-4.77,38.38,26.82-.05,40.26-.07,67.13-.12.11-15.35.2-23.03.51-38.29Z"/>
          <path class="cls-101" d="M1339.48,1134.17c-25.14.01-37.72.02-62.88.03.29,15.25.5,22.92,1,38.25,26.87-.05,40.31-.07,67.14-.12-2.21-15.3-3.27-22.95-5.25-38.17Z"/>
          <path class="cls-87" d="M1368.35,1172.29c26.79-.05,40.16-.07,66.8-.12-4.44-15.24-6.61-22.86-10.8-38.05-25.05.01-37.6.02-62.72.03,2.57,15.21,3.93,22.85,6.73,38.13Z"/>
          <path class="cls-104" d="M1458.59,1172.13c26.57-.05,39.81-.07,66.13-.12-6.49-15.19-9.68-22.78-15.9-37.92-24.91.01-37.39.02-62.41.03,4.74,15.17,7.19,22.78,12.18,38.01Z"/>
          <path class="cls-92" d="M1547.86,1171.97c26.22-.05,39.25-.07,65.12-.12-8.26-15.14-12.34-22.7-20.29-37.8-24.7.01-37.09.02-61.95.03,6.7,15.13,10.14,22.72,17.12,37.89Z"/>
          <path class="cls-90" d="M1635.72,1171.81c25.73-.05,38.5-.07,63.78-.12-9.65-15.08-14.42-22.62-23.74-37.68-24.43.01-36.7.02-61.33.03,8.35,15.09,12.63,22.65,21.29,37.77Z"/>
          <path class="cls-89" d="M1757.79,1133.97c-24.09.01-36.21.02-60.55.03,9.6,15.05,14.52,22.58,24.46,37.65,25.11-.05,37.54-.07,62.1-.12-10.57-15.03-15.79-22.54-26.01-37.56Z"/>
          <path class="cls-91" d="M1805.35,1171.49c24.35-.05,36.38-.07,60.09-.12-10.91-14.97-16.31-22.46-26.84-37.44-23.7.01-35.63.02-59.62.03,10.35,15.01,15.66,22.52,26.37,37.53Z"/>
          <path class="cls-98" d="M714.06,1191.86c-24.52.07-36.6.1-60.32.17-10.5,15.71-15.73,23.56-26.13,39.06,23.74-.1,35.93-.15,60.82-.25,10.19-15.47,15.32-23.31,25.62-38.98Z"/>
          <path class="cls-97" d="M710.54,1230.74c25.27-.1,38.18-.15,64.43-.25,9.41-15.44,14.14-23.25,23.66-38.87-25.47.07-38.05.1-62.84.17-10.15,15.65-15.2,23.49-25.25,38.95Z"/>
          <path class="cls-99" d="M798.23,1230.41c26.56-.1,40.07-.15,67.43-.25,8.12-15.4,12.21-23.19,20.45-38.75-26.25.07-39.25.1-64.94.17-9.23,15.6-13.82,23.41-22.93,38.84Z"/>
          <path class="cls-105" d="M889.88,1230.07c27.61-.1,41.6-.15,69.83-.25,6.44-15.37,9.68-23.13,16.22-38.64-26.86.07-40.2.1-66.62.17-7.83,15.55-11.71,23.33-19.43,38.72Z"/>
          <path class="cls-100" d="M984.67,1229.74c28.42-.1,42.77-.15,71.63-.25,4.44-15.34,6.69-23.07,11.24-38.53-27.3.07-40.89.1-67.88.17-6.05,15.5-9.05,23.25-14.99,38.61Z"/>
          <path class="cls-106" d="M1160.37,1190.74c-27.57.07-41.34.1-68.72.17-3.99,15.44-5.96,23.17-9.84,38.5,28.99-.1,43.58-.15,72.84-.25,2.24-15.3,3.38-23.01,5.73-38.42Z"/>
          <path class="cls-68" d="M1253.83,1190.51c-27.68.07-41.53.1-69.14.17-1.76,15.39-2.6,23.09-4.24,38.39,29.32-.1,44.03-.15,73.44-.25-.07-15.27-.09-22.95-.05-38.3Z"/>
          <path class="cls-69" d="M1347.36,1190.29c-27.62.07-41.46.1-69.14.17.57,15.34.89,23.01,1.57,38.28,29.41-.1,44.12-.15,73.44-.25-2.4-15.24-3.58-22.89-5.86-38.19Z"/>
          <path class="cls-70" d="M1379.03,1228.39c29.26-.1,43.85-.15,72.84-.25-4.63-15.2-6.94-22.83-11.46-38.08-27.39.07-41.15.1-68.72.17,2.88,15.29,4.36,22.93,7.35,38.16Z"/>
          <path class="cls-67" d="M1477.36,1228.06c28.86-.1,43.21-.15,71.63-.25-6.69-15.17-10.03-22.77-16.61-37.97-26.99.07-40.58.1-67.88.17,5.08,15.23,7.67,22.85,12.86,38.05Z"/>
          <path class="cls-75" d="M1573.95,1227.72c28.23-.1,42.22-.15,69.83-.25-8.47-15.14-12.7-22.71-21.05-37.86-26.42.07-39.76.1-66.62.17,7.07,15.18,10.66,22.78,17.84,37.94Z"/>
          <path class="cls-73" d="M1668.01,1227.38c27.36-.1,40.87-.15,67.43-.25-9.87-15.1-14.8-22.65-24.55-37.74-25.69.07-38.69.1-64.94.17,8.76,15.13,13.19,22.7,22.07,37.83Z"/>
          <path class="cls-76" d="M1753.81,1189.28c-8.12.02-12.2.03-20.39.05,10.04,15.08,15.12,22.62,25.28,37.71,8.44-.03,12.64-.05,20.98-.08,17.6-.07,26.3-.1,43.44-.17,34.18-.13,50.82-.2,82.92-.34-11.14-15.04-16.72-22.53-27.75-37.52-32.07.09-48.52.14-82.04.22-16.82.05-25.31.07-42.45.11Z"/>
          <path class="cls-74" d="M698.79,1248.79c-34.48.15-51.21.22-83.34.37-10.32,15.3-15.45,22.85-25.57,37.54,32.14-.14,49.05-.21,84.17-.34,10.71-.04,16.14-.06,27.1-.1,15.61-.06,23.54-.09,39.62-.15,9.2-14.75,13.84-22.3,23.18-37.58-15.63.06-23.36.1-38.62.16-10.72.04-16.03.07-26.55.11Z"/>
          <path class="cls-72" d="M765.1,1286c27.83-.1,42.07-.15,71.05-.25,7.94-14.79,11.95-22.34,20.01-37.6-27.88.11-41.63.16-68.59.27-9.06,15.27-13.56,22.82-22.47,37.58Z"/>
          <path class="cls-71" d="M861.85,1285.66c29.34-.1,44.27-.15,74.51-.25,6.28-14.82,9.45-22.38,15.84-37.62-28.88.11-43.17.16-71.34.27-7.67,15.25-11.47,22.81-19.01,37.6Z"/>
          <path class="cls-114" d="M963.12,1285.32c30.51-.1,45.96-.15,77.11-.25,4.32-14.86,6.5-22.42,10.89-37.64-29.6.11-44.3.16-73.39.27-5.89,15.24-8.81,22.79-14.61,37.63Z"/>
          <path class="cls-115" d="M1152.03,1247.05c-30.04.11-45.02.16-74.76.27-3.84,15.22-5.74,22.78-9.51,37.65,31.33-.1,47.13-.15,78.84-.25,2.15-14.9,3.23-22.46,5.43-37.66Z"/>
          <path class="cls-116" d="M1253.98,1246.69c-30.22.11-45.33.16-75.45.27-1.61,15.2-2.39,22.76-3.96,37.67,31.8-.1,47.78-.15,79.71-.25-.13-14.94-.2-22.49-.3-37.69Z"/>
          <path class="cls-110" d="M1356.05,1246.32c-30.12.11-45.23.16-75.45.27.71,15.19,1.08,22.74,1.81,37.69,31.93-.1,47.9-.15,79.71-.25-2.42-14.97-3.65-22.53-6.07-37.71Z"/>
          <path class="cls-111" d="M1390.11,1283.94c31.71-.1,47.51-.15,78.84-.25-4.63-15.01-6.97-22.57-11.63-37.73-29.74.11-44.72.16-74.76.27,3.02,15.17,4.54,22.73,7.55,37.71Z"/>
          <path class="cls-112" d="M1496.48,1283.6c31.15-.1,46.6-.15,77.11-.25-6.66-15.05-10.02-22.61-16.73-37.75-29.09.11-43.79.16-73.39.27,5.21,15.15,7.83,22.71,13.01,37.73Z"/>
          <path class="cls-113" d="M1600.35,1283.25c30.24-.1,45.17-.15,74.51-.25-8.41-15.09-12.65-22.64-21.13-37.77-28.17.11-42.46.16-71.34.27,7.2,15.14,10.81,22.7,17.95,37.76Z"/>
          <path class="cls-107" d="M1700.56,1282.91c28.98-.1,43.22-.15,71.05-.26-9.77-15.12-14.72-22.68-24.59-37.79-26.97.11-40.71.16-68.59.27,8.88,15.12,13.33,22.68,22.13,37.78Z"/>
          <path class="cls-108" d="M1795.93,1282.56c27.38-.1,40.75-.15,66.72-.25-10.67-15.16-16.07-22.72-26.86-37.82-25.5.11-38.56.16-65.17.27,10.16,15.11,15.25,22.67,25.3,37.8Z"/>
          <path class="cls-109" d="M1885.29,1282.22c25.43-.1,37.76-.15,61.53-.25-10.99-15.2-16.56-22.76-27.69-37.84-23.75.11-35.99.16-61.06.27,10.94,15.09,16.41,22.65,27.22,37.82Z"/>
          <path class="cls-124" d="M553.37,1338.23h62.1c9.6-13.4,14.47-20.39,24.32-34.74-25.59.08-37.97.12-61.73.21-10.01,14.3-14.96,21.25-24.69,34.53Z"/>
          <path class="cls-125" d="M638.61,1338.23h68.88c8.92-13.55,13.43-20.6,22.54-35.02-27.73.08-41.25.12-67.43.21-9.71,14.37-14.52,21.38-23.99,34.81Z"/>
          <path class="cls-126" d="M732.82,1338.23h74.54c7.73-13.71,11.63-20.81,19.51-35.3-29.49.08-43.96.12-72.18.21-8.84,14.44-13.21,21.5-21.86,35.09Z"/>
          <path class="cls-120" d="M834.48,1338.23h79.06c6.14-13.87,9.23-21.02,15.47-35.58-30.87.08-46.1.12-75.98.21-7.48,14.51-11.19,21.62-18.55,35.37Z"/>
          <path class="cls-121" d="M942.06,1338.23h82.45c4.25-14.03,6.38-21.23,10.67-35.86-31.87.08-47.67.12-78.83.21-5.76,14.58-8.61,21.74-14.28,35.66Z"/>
          <path class="cls-122" d="M1393.63,1301.45c-11.45.03-17.18.04-28.67.07-32.59.08-48.96.12-81.69.21-11.53.03-17.3.04-28.84.07-32.73.08-49.1.12-81.68.21-44.07.11-66.04.17-109.41.28-3.75,14.65-5.61,21.87-9.32,35.94h431.64c-4.43-14.66-6.71-22.07-11.3-36.99-29.7.08-44.67.12-74.73.19-2.4,0-3.6,0-6,.02Z"/>
          <path class="cls-123" d="M1515.18,1338.23h82.45c-6.39-14.82-9.66-22.28-16.26-37.27-31.16.08-46.97.12-78.83.21,5.14,14.93,7.68,22.36,12.65,37.06Z"/>
          <path class="cls-117" d="M1626.14,1338.23h79.06c-8.07-14.98-12.2-22.49-20.52-37.55-29.88.08-45.12.13-75.98.21,7.08,15.01,10.59,22.48,17.45,37.34Z"/>
          <path class="cls-118" d="M1732.33,1338.23h74.54c-9.37-15.14-14.16-22.7-23.84-37.83-28.22.08-42.69.12-72.18.21,8.72,15.08,13.04,22.6,21.49,37.62Z"/>
          <path class="cls-119" d="M1832.19,1338.23h68.88c-10.2-15.3-15.42-22.91-25.97-38.11-26.18.08-39.7.12-67.43.21,9.96,15.15,14.89,22.73,24.52,37.9Z"/>
          <path class="cls-136" d="M1924.21,1338.23h62.1c-10.45-15.45-15.81-23.12-26.67-38.39-23.76.08-36.14.12-61.73.21,10.69,15.22,15.98,22.85,26.3,38.19Z"/>
        </g>
      </g>
      <g>
        <rect class="cls-134" x="908.27" width="735.78" height="978.79" rx="62.35" ry="62.35"/>
        <path class="cls-130" d="M1644.05,62.35v65.29h-735.78V62.35c0-34.36,27.98-62.35,62.35-62.35h611.09c34.36,0,62.35,27.98,62.35,62.35Z"/>
        <circle class="cls-154" cx="983.12" cy="62.65" r="12.67"/>
        <circle class="cls-154" cx="1018.04" cy="62.65" r="12.67"/>
        <circle class="cls-154" cx="1052.96" cy="62.65" r="12.67"/>
        <g>
          <rect class="cls-2" x="933.04" y="144.16" width="255.38" height="707.96"/>
          <rect class="cls-66" x="1188.43" y="144.16" width="429.79" height="707.96"/>
          <rect class="cls-65" x="933.04" y="144.16" width="255.38" height="296.7" rx="36.03" ry="36.03"/>
          <rect class="cls-2" x="1188.43" y="144.16" width="429.79" height="254.62"/>
          <rect class="cls-1" x="1294.45" y="83.44" width="215.96" height="376.06" rx="15.04" ry="15.04" transform="translate(1673.89 -1130.96) rotate(90)"/>
          <path class="cls-65" d="M933.04,852.11h685.18v55.68c0,23.25-18.88,42.13-42.13,42.13h-604.81c-21.1,0-38.24-17.13-38.24-38.24v-59.57h0Z"/>
          <rect class="cls-1" x="1021.43" y="199.12" width="78.61" height="72.5" rx="14.29" ry="14.29"/>
          <rect class="cls-1" x="1021.43" y="468.62" width="78.61" height="72.5" rx="11.35" ry="11.35"/>
          <rect class="cls-1" x="975.68" y="297.32" width="170.1" height="4.24" rx="2.11" ry="2.11"/>
          <rect class="cls-1" x="975.68" y="335.41" width="170.1" height="4.24" rx="2.11" ry="2.11"/>
          <rect class="cls-1" x="975.68" y="346.8" width="170.1" height="4.24" rx="2.11" ry="2.11"/>
          <rect class="cls-1" x="975.68" y="358.19" width="170.1" height="4.24" rx="2.11" ry="2.11"/>
          <g>
            <g>
              <rect class="cls-1" x="1224.01" y="503.85" width="358.64" height="4.24" rx="2.11" ry="2.11"/>
              <rect class="cls-155" x="1224.01" y="479.81" width="358.64" height="4.24" rx="2.11" ry="2.11"/>
              <rect class="cls-1" x="1224.01" y="515.24" width="358.64" height="4.24" rx="2.11" ry="2.11"/>
              <rect class="cls-1" x="1224.01" y="526.63" width="358.64" height="4.24" rx="2.11" ry="2.11"/>
            </g>
            <g>
              <rect class="cls-1" x="1224.01" y="539.25" width="358.64" height="4.24" rx="2.11" ry="2.11"/>
              <rect class="cls-1" x="1224.01" y="550.64" width="358.64" height="4.24" rx="2.11" ry="2.11"/>
              <rect class="cls-1" x="1224.01" y="562.03" width="358.64" height="4.24" rx="2.11" ry="2.11"/>
            </g>
          </g>
          <g>
            <g>
              <rect class="cls-1" x="1224.01" y="618.31" width="358.64" height="4.24" rx="2.11" ry="2.11"/>
              <rect class="cls-155" x="1224.01" y="594.26" width="358.64" height="4.24" rx="2.11" ry="2.11"/>
              <rect class="cls-1" x="1224.01" y="629.7" width="358.64" height="4.24" rx="2.11" ry="2.11"/>
              <rect class="cls-1" x="1224.01" y="641.09" width="358.64" height="4.24" rx="2.11" ry="2.11"/>
            </g>
            <g>
              <rect class="cls-1" x="1224.01" y="653.7" width="358.64" height="4.24" rx="2.11" ry="2.11"/>
              <rect class="cls-1" x="1224.01" y="665.09" width="358.64" height="4.24" rx="2.11" ry="2.11"/>
              <rect class="cls-1" x="1224.01" y="676.49" width="358.64" height="4.24" rx="2.11" ry="2.11"/>
            </g>
          </g>
          <g>
            <g>
              <rect class="cls-1" x="1224.01" y="732.76" width="358.64" height="4.24" rx="2.11" ry="2.11"/>
              <rect class="cls-155" x="1224.01" y="708.72" width="358.64" height="4.24" rx="2.11" ry="2.11"/>
              <rect class="cls-1" x="1224.01" y="744.16" width="358.64" height="4.24" rx="2.11" ry="2.11"/>
              <rect class="cls-1" x="1224.01" y="755.55" width="358.64" height="4.24" rx="2.11" ry="2.11"/>
            </g>
            <g>
              <rect class="cls-1" x="1224.01" y="768.16" width="358.64" height="4.24" rx="2.11" ry="2.11"/>
              <rect class="cls-1" x="1224.01" y="779.55" width="358.64" height="4.24" rx="2.11" ry="2.11"/>
              <rect class="cls-1" x="1224.01" y="790.94" width="358.64" height="4.24" rx="2.11" ry="2.11"/>
            </g>
          </g>
          <rect class="cls-1" x="975.68" y="369.58" width="170.1" height="4.24" rx="2.11" ry="2.11"/>
          <rect class="cls-1" x="975.68" y="380.98" width="170.1" height="4.24" rx="2.11" ry="2.11"/>
          <rect class="cls-1" x="975.68" y="392.37" width="170.1" height="4.24" rx="2.11" ry="2.11"/>
          <rect class="cls-1" x="975.68" y="571.48" width="170.1" height="4.24" rx="2.11" ry="2.11"/>
          <rect class="cls-1" x="975.68" y="582.87" width="170.1" height="4.24" rx="2.11" ry="2.11"/>
          <rect class="cls-1" x="975.68" y="594.26" width="170.1" height="4.24" rx="2.11" ry="2.11"/>
          <rect class="cls-1" x="975.68" y="887.51" width="170.1" height="4.24" rx="2.11" ry="2.11"/>
          <rect class="cls-1" x="975.68" y="898.9" width="170.1" height="4.24" rx="2.11" ry="2.11"/>
          <rect class="cls-1" x="975.68" y="910.29" width="170.1" height="4.24" rx="2.11" ry="2.11"/>
          <rect class="cls-1" x="1395.22" y="887.51" width="170.1" height="4.24" rx="2.11" ry="2.11"/>
          <rect class="cls-1" x="1395.22" y="898.9" width="170.1" height="4.24" rx="2.11" ry="2.11"/>
          <rect class="cls-1" x="1395.22" y="910.29" width="170.1" height="4.24" rx="2.11" ry="2.11"/>
          <rect class="cls-1" x="975.68" y="605.66" width="170.1" height="4.24" rx="2.11" ry="2.11"/>
          <rect class="cls-1" x="975.68" y="617.05" width="170.1" height="4.24" rx="2.11" ry="2.11"/>
          <rect class="cls-1" x="975.68" y="628.44" width="170.1" height="4.24" rx="2.11" ry="2.11"/>
          <rect class="cls-1" x="1021.43" y="666.87" width="78.61" height="72.5" rx="11.35" ry="11.35"/>
          <rect class="cls-1" x="975.68" y="769.73" width="170.1" height="4.24" rx="2.11" ry="2.11"/>
          <rect class="cls-1" x="975.68" y="781.13" width="170.1" height="4.24" rx="2.11" ry="2.11"/>
          <rect class="cls-1" x="975.68" y="792.52" width="170.1" height="4.24" rx="2.11" ry="2.11"/>
          <rect class="cls-1" x="975.68" y="803.91" width="170.1" height="4.24" rx="2.11" ry="2.11"/>
          <rect class="cls-1" x="975.68" y="815.3" width="170.1" height="4.24" rx="2.11" ry="2.11"/>
          <rect class="cls-1" x="975.68" y="826.69" width="170.1" height="4.24" rx="2.11" ry="2.11"/>
          <g>
            <g>
              <rect class="cls-65" x="1268.41" y="328.79" width="268.03" height="3.39" rx="1.69" ry="1.69"/>
              <rect class="cls-65" x="1268.41" y="337.91" width="268.03" height="3.39" rx="1.69" ry="1.69"/>
              <rect class="cls-65" x="1268.41" y="347.04" width="268.03" height="3.39" rx="1.69" ry="1.69"/>
            </g>
            <path class="cls-65" d="M1309.75,310.39h107.14c6.02,0,9.43-5.75,5.77-9.73l-53.57-58.19c-2.91-3.16-8.63-3.16-11.53,0l-53.57,58.19c-3.66,3.98-.25,9.73,5.77,9.73Z"/>
            <path class="cls-66" d="M1377.39,310.39h131.98c7.42,0,11.62-7.08,7.1-11.98l-65.99-71.68c-3.58-3.89-10.62-3.89-14.21,0l-65.99,71.68c-4.51,4.9-.31,11.98,7.1,11.98Z"/>
            <ellipse class="cls-65" cx="1356.09" cy="208.74" rx="18.04" ry="15.02"/>
          </g>
          <rect class="cls-1" x="1224.01" y="415.91" width="162.59" height="16.13" rx="6.69" ry="6.69"/>
          <rect class="cls-1" x="1224.01" y="445" width="284.22" height="16.13" rx="8.03" ry="8.03"/>
        </g>
      </g>
      <g>
        <path class="cls-135" d="M1948.93,1004.82H581.72c-32.59,0-59-23.29-59-52.01l-37.47-62.66c0-14.07,60.35-50.63,63.9-52.7,9.34-5.46,20.53-8.64,32.58-8.64h1367.21c12.36,0,23.83,3.35,33.3,9.07,3.89,2.35,57.33,33.42,57.33,46.78l-31.63,68.15c0,28.72-26.42,52.01-59,52.01Z"/>
        <path class="cls-132" d="M1994.83,1037.02H535.83c-31.72,0-57.43-25.71-57.43-57.43v-61.15c0-31.72,25.71-57.43,57.43-57.43h1459c31.72,0,57.43,25.71,57.43,57.43v61.15c0,31.72-25.71,57.43-57.43,57.43Z"/>
        <path class="cls-129" d="M2032.84,914.96v68.12c0,20.33-18.72,36.83-41.78,36.83H539.54c-22.99,0-41.71-16.5-41.71-36.83v-68.12c0-20.33,18.72-36.83,41.71-36.83h1451.51c23.07,0,41.78,16.5,41.78,36.83Z"/>
        <path class="cls-133" d="M2032.84,914.96v68.12c0,20.33-18.72,36.83-41.78,36.83h-294.12s0-141.78,0-141.78h294.12c23.07,0,41.78,16.5,41.78,36.83Z"/>
        <path class="cls-153" d="M1532.8,959.18h-969.66c-5.61,0-10.16-4.55-10.16-10.16h0c0-5.61,4.55-10.16,10.16-10.16h969.66c5.61,0,10.16,4.55,10.16,10.16h0c0,5.61-4.55,10.16-10.16,10.16Z"/>
      </g>
      <g class="cls-152">
        <path class="cls-63" d="M2532.45,1309.47c15.81,84.18-195.07,156.7-471,161.99-275.93,5.28-512.43-58.67-528.24-142.85-15.81-84.18,195.07-156.7,471-161.99,275.93-5.28,512.43,58.67,528.24,142.85Z"/>
        <path class="cls-14" d="M2528.16,1308.39c15.64,83.31-193.26,155.08-466.6,160.3-273.34,5.22-507.6-58.08-523.24-141.39-15.64-83.31,193.26-155.08,466.6-160.3,273.34-5.22,507.6,58.08,523.24,141.39Z"/>
        <path class="cls-13" d="M2523.86,1307.31c15.48,82.44-191.45,153.46-462.2,158.61-270.74,5.16-502.77-57.49-518.25-139.94-15.48-82.44,191.45-153.46,462.2-158.61,270.74-5.16,502.77,57.49,518.25,139.94Z"/>
        <path class="cls-62" d="M2519.56,1306.23c15.31,81.57-189.65,151.83-457.8,156.93-268.15,5.09-497.94-56.9-513.25-138.48-15.31-81.57,189.65-151.83,457.8-156.93,268.15-5.09,497.94,56.9,513.25,138.48Z"/>
        <path class="cls-61" d="M2515.26,1305.16c15.15,80.71-187.84,150.21-453.4,155.24-265.55,5.03-493.1-56.31-508.25-137.02-15.15-80.71,187.84-150.21,453.4-155.24,265.55-5.03,493.1,56.31,508.25,137.02Z"/>
        <path class="cls-57" d="M2510.96,1304.08c14.98,79.84-186.04,148.59-448.99,153.56-262.96,4.97-488.27-55.73-503.26-135.56-14.98-79.84,186.04-148.59,448.99-153.56,262.96-4.97,488.27,55.73,503.26,135.56Z"/>
        <path class="cls-60" d="M2506.66,1303c14.82,78.97-184.23,146.96-444.59,151.87-260.36,4.91-483.44-55.14-498.26-134.11-14.82-78.97,184.23-146.96,444.59-151.87,260.36-4.9,483.44,55.14,498.26,134.11Z"/>
        <path class="cls-58" d="M2502.37,1301.93c14.65,78.1-182.43,145.34-440.19,150.18-257.77,4.84-478.61-54.55-493.26-132.65-14.65-78.1,182.43-145.34,440.19-150.18,257.77-4.84,478.61,54.55,493.26,132.65Z"/>
        <path class="cls-59" d="M2498.07,1300.85c14.49,77.23-180.62,143.72-435.79,148.5-255.17,4.78-473.78-53.96-488.27-131.19-14.49-77.23,180.62-143.72,435.79-148.5,255.17-4.78,473.78,53.96,488.27,131.19Z"/>
        <path class="cls-51" d="M2493.77,1299.77c14.33,76.37-178.82,142.09-431.39,146.81-252.58,4.72-468.95-53.37-483.27-129.73-14.33-76.37,178.82-142.09,431.39-146.81,252.58-4.72,468.95,53.37,483.27,129.74Z"/>
        <path class="cls-49" d="M2489.47,1298.69c14.16,75.5-177.01,140.47-426.99,145.12-249.98,4.65-464.11-52.78-478.27-128.28-14.16-75.5,177.01-140.47,426.99-145.12,249.98-4.65,464.11,52.78,478.27,128.28Z"/>
        <path class="cls-45" d="M2485.17,1297.62c14,74.63-175.2,138.85-422.59,143.44-247.39,4.59-459.28-52.19-473.28-126.82-14-74.63,175.2-138.85,422.59-143.44,247.39-4.59,459.28,52.19,473.28,126.82Z"/>
        <path class="cls-55" d="M2480.88,1296.54c13.83,73.76-173.4,137.23-418.19,141.75-244.79,4.53-454.45-51.6-468.28-125.36-13.83-73.76,173.4-137.23,418.19-141.75,244.79-4.53,454.45,51.6,468.28,125.36Z"/>
        <path class="cls-56" d="M2476.58,1295.46c13.67,72.89-171.59,135.6-413.79,140.06-242.2,4.46-449.62-51.01-463.29-123.91-13.67-72.89,171.59-135.6,413.79-140.06,242.2-4.46,449.62,51.01,463.29,123.91Z"/>
        <path class="cls-52" d="M2472.28,1294.39c13.5,72.03-169.79,133.98-409.39,138.38-239.6,4.4-444.79-50.42-458.29-122.45-13.5-72.03,169.79-133.98,409.39-138.38,239.6-4.4,444.79,50.42,458.29,122.45Z"/>
        <path class="cls-53" d="M2467.98,1293.31c13.34,71.16-167.98,132.36-404.99,136.69-237.01,4.34-439.95-49.83-453.29-120.99-13.34-71.16,167.98-132.36,404.99-136.69,237.01-4.34,439.95,49.83,453.29,120.99Z"/>
        <path class="cls-54" d="M2463.68,1292.23c13.17,70.29-166.18,130.73-400.59,135.01-234.41,4.27-435.12-49.25-448.3-119.53-13.17-70.29,166.18-130.73,400.59-135.01,234.41-4.27,435.12,49.25,448.3,119.53Z"/>
        <path class="cls-50" d="M2459.38,1291.15c13.01,69.42-164.37,129.11-396.19,133.32-231.82,4.21-430.29-48.66-443.3-118.08-13.01-69.42,164.37-129.11,396.19-133.32,231.82-4.21,430.29,48.66,443.3,118.08Z"/>
        <path class="cls-38" d="M2455.09,1290.08c12.84,68.55-162.57,127.49-391.79,131.63-229.22,4.15-425.46-48.07-438.3-116.62-12.84-68.55,162.57-127.49,391.79-131.63,229.22-4.15,425.46,48.07,438.3,116.62Z"/>
        <path class="cls-33" d="M2450.79,1289c12.68,67.69-160.76,125.86-387.39,129.95-226.63,4.08-420.63-47.48-433.31-115.16-12.68-67.69,160.76-125.86,387.39-129.95,226.63-4.08,420.63,47.48,433.31,115.16Z"/>
        <path class="cls-34" d="M2446.49,1287.92c12.52,66.82-158.95,124.24-382.99,128.26-224.03,4.02-415.79-46.89-428.31-113.71-12.52-66.82,158.95-124.24,382.99-128.26,224.03-4.02,415.79,46.89,428.31,113.71Z"/>
        <path class="cls-35" d="M2442.19,1286.84c12.35,65.95-157.15,122.62-378.59,126.57-221.44,3.96-410.96-46.3-423.31-112.25-12.35-65.95,157.15-122.62,378.59-126.57,221.44-3.96,410.96,46.3,423.31,112.25Z"/>
        <path class="cls-27" d="M2437.89,1285.77c12.19,65.08-155.34,120.99-374.19,124.89-218.84,3.89-406.13-45.71-418.32-110.79-12.19-65.08,155.34-120.99,374.19-124.89,218.84-3.89,406.13,45.71,418.32,110.79Z"/>
        <path class="cls-30" d="M2433.6,1284.69c12.02,64.21-153.54,119.37-369.79,123.2-216.25,3.83-401.3-45.12-413.32-109.33-12.02-64.21,153.54-119.37,369.79-123.2,216.25-3.83,401.3,45.12,413.32,109.33Z"/>
        <path class="cls-46" d="M2429.3,1283.61c11.86,63.34-151.73,117.75-365.39,121.51-213.65,3.77-396.47-44.53-408.32-107.88-11.86-63.34,151.73-117.75,365.39-121.51,213.65-3.77,396.47,44.53,408.32,107.88Z"/>
        <path class="cls-47" d="M2425,1282.54c11.69,62.48-149.93,116.13-360.99,119.83-211.06,3.7-391.64-43.94-403.33-106.42-11.69-62.48,149.93-116.13,360.99-119.83,211.06-3.7,391.64,43.94,403.33,106.42Z"/>
        <path class="cls-48" d="M2420.7,1281.46c11.53,61.61-148.12,114.5-356.59,118.14-208.46,3.64-386.8-43.35-398.33-104.96-11.53-61.61,148.12-114.5,356.58-118.14,208.46-3.64,386.8,43.35,398.33,104.96Z"/>
        <path class="cls-41" d="M2416.4,1280.38c11.36,60.74-146.32,112.88-352.18,116.45-205.87,3.58-381.97-42.77-393.34-103.51-11.36-60.74,146.31-112.88,352.18-116.45,205.87-3.58,381.97,42.77,393.34,103.51Z"/>
        <path class="cls-40" d="M2412.1,1279.3c11.2,59.87-144.51,111.26-347.78,114.77-203.27,3.51-377.14-42.18-388.34-102.05-11.2-59.87,144.51-111.26,347.78-114.77,203.27-3.51,377.14,42.18,388.34,102.05Z"/>
        <path class="cls-39" d="M2407.81,1278.23c11.03,59-142.7,109.63-343.38,113.08-200.68,3.45-372.31-41.59-383.34-100.59-11.03-59,142.7-109.63,343.38-113.08,200.68-3.45,372.31,41.59,383.34,100.59Z"/>
        <path class="cls-43" d="M2403.51,1277.15c10.87,58.14-140.9,108.01-338.98,111.4-198.08,3.39-367.48-41-378.35-99.13-10.87-58.14,140.9-108.01,338.98-111.4,198.08-3.39,367.48,41,378.35,99.13Z"/>
        <path class="cls-42" d="M2399.21,1276.07c10.71,57.27-139.09,106.39-334.58,109.71-195.49,3.32-362.64-40.41-373.35-97.68-10.71-57.27,139.09-106.39,334.58-109.71,195.49-3.32,362.64,40.41,373.35,97.68Z"/>
        <path class="cls-44" d="M2394.91,1275c10.54,56.4-137.29,104.76-330.18,108.02-192.9,3.26-357.81-39.82-368.35-96.22-10.54-56.4,137.29-104.76,330.18-108.02,192.9-3.26,357.81,39.82,368.35,96.22Z"/>
        <path class="cls-37" d="M2390.61,1273.92c10.38,55.53-135.48,103.14-325.78,106.34-190.3,3.2-352.98-39.23-363.36-94.76-10.38-55.53,135.48-103.14,325.78-106.34,190.3-3.2,352.98,39.23,363.36,94.76Z"/>
        <path class="cls-36" d="M2386.31,1272.84c10.21,54.66-133.68,101.52-321.38,104.65-187.71,3.13-348.15-38.64-358.36-93.31-10.21-54.66,133.68-101.52,321.38-104.65,187.71-3.13,348.15,38.64,358.36,93.31Z"/>
        <path class="cls-25" d="M2382.02,1271.76c10.05,53.8-131.87,99.89-316.98,102.96-185.11,3.07-343.32-38.05-353.36-91.85-10.05-53.8,131.87-99.89,316.98-102.96,185.11-3.07,343.32,38.05,353.36,91.85Z"/>
        <path class="cls-24" d="M2377.72,1270.69c9.88,52.93-130.06,98.27-312.58,101.28-182.52,3.01-338.48-37.46-348.37-90.39-9.88-52.93,130.06-98.27,312.58-101.28,182.52-3.01,338.49,37.46,348.37,90.39Z"/>
        <path class="cls-23" d="M2373.42,1269.61c9.72,52.06-128.26,96.65-308.18,99.59-179.92,2.94-333.65-36.87-343.37-88.93-9.72-52.06,128.26-96.65,308.18-99.59,179.92-2.94,333.65,36.87,343.37,88.93Z"/>
        <path class="cls-17" d="M2369.12,1268.53c9.55,51.19-126.45,95.02-303.78,97.9-177.33,2.88-328.82-36.29-338.37-87.48-9.55-51.19,126.45-95.02,303.78-97.9,177.33-2.88,328.82,36.29,338.37,87.48Z"/>
        <path class="cls-26" d="M2364.82,1267.45c9.39,50.32-124.65,93.4-299.38,96.22-174.73,2.82-323.99-35.7-333.38-86.02-9.39-50.32,124.65-93.4,299.38-96.22,174.73-2.82,323.99,35.7,333.38,86.02Z"/>
        <path class="cls-18" d="M2360.53,1266.38c9.22,49.46-122.84,91.78-294.98,94.53-172.14,2.75-319.16-35.11-328.38-84.56-9.22-49.46,122.84-91.78,294.98-94.53,172.14-2.75,319.16,35.11,328.38,84.56Z"/>
        <path class="cls-20" d="M2356.23,1265.3c9.06,48.59-121.04,90.16-290.58,92.84-169.54,2.69-314.33-34.52-323.39-83.11-9.06-48.59,121.04-90.16,290.58-92.84,169.54-2.69,314.33,34.52,323.39,83.11Z"/>
        <path class="cls-19" d="M2351.93,1264.22c8.89,47.72-119.23,88.53-286.18,91.16-166.95,2.63-309.49-33.93-318.39-81.65-8.89-47.72,119.23-88.53,286.18-91.16,166.95-2.63,309.49,33.93,318.39,81.65Z"/>
        <path class="cls-22" d="M2347.63,1263.15c8.73,46.85-117.43,86.91-281.78,89.47-164.35,2.56-304.66-33.34-313.39-80.19-8.73-46.85,117.43-86.91,281.78-89.47,164.35-2.56,304.66,33.34,313.39,80.19Z"/>
        <path class="cls-15" d="M2343.33,1262.07c8.57,45.98-115.62,85.29-277.38,87.79-161.76,2.5-299.83-32.75-308.4-78.73-8.57-45.98,115.62-85.29,277.38-87.79,161.76-2.5,299.83,32.75,308.4,78.73Z"/>
        <path class="cls-21" d="M2339.03,1260.99c8.4,45.11-113.81,83.66-272.98,86.1-159.16,2.44-295-32.16-303.4-77.28-8.4-45.11,113.81-83.66,272.98-86.1,159.16-2.44,295,32.16,303.4,77.28Z"/>
        <path class="cls-16" d="M2334.74,1259.91c8.24,44.25-112.01,82.04-268.58,84.41-156.57,2.37-290.17-31.57-298.4-75.82-8.24-44.25,112.01-82.04,268.58-84.41,156.57-2.37,290.17,31.57,298.4,75.82Z"/>
        <path class="cls-29" d="M2330.44,1258.84c8.07,43.38-110.2,80.42-264.18,82.73-153.97,2.31-285.33-30.98-293.41-74.36-8.07-43.38,110.2-80.42,264.18-82.73,153.97-2.31,285.33,30.98,293.41,74.36Z"/>
        <path class="cls-28" d="M2326.14,1257.76c7.91,42.51-108.4,78.79-259.77,81.04-151.38,2.25-280.5-30.39-288.41-72.91-7.91-42.51,108.4-78.79,259.77-81.04,151.38-2.25,280.5,30.39,288.41,72.91Z"/>
        <path class="cls-32" d="M2321.84,1256.68c7.74,41.64-106.59,77.17-255.37,79.35-148.78,2.18-275.67-29.81-283.41-71.45-7.74-41.64,106.59-77.17,255.37-79.35,148.78-2.18,275.67,29.81,283.41,71.45Z"/>
        <path class="cls-31" d="M2317.54,1255.61c7.58,40.77-104.79,75.55-250.97,77.67-146.19,2.12-270.84-29.22-278.42-69.99-7.58-40.77,104.79-75.55,250.97-77.67,146.19-2.12,270.84,29.22,278.42,69.99Z"/>
        <path class="cls-12" d="M2313.24,1254.53c7.41,39.91-102.98,73.92-246.57,75.98-143.59,2.06-266.01-28.63-273.42-68.53-7.41-39.91,102.98-73.92,246.57-75.98,143.59-2.06,266.01,28.63,273.42,68.53Z"/>
      </g>
      <g>
        <path class="cls-131" d="M1975.43,1023.21s-119.9-8.3-173.11,92.87c-44.24,84.11-120.85,49.52-158.83,110.82-37.97,61.3-71.62,48.13-71.62,48.13,0,0,47.28,57.97,98.89,28.95,24.78-13.94,38.11-44.67,79.71-21.58,41.6,23.08,123.19,63.34,170.62-3.51,47.43-66.85,154.48-79.79,154.48-79.79l-100.14-175.88Z"/>
        <g>
          <g>
            <path class="cls-128" d="M2291.45,826.92s-112.75-117.36-297.36-6.29c-63.8,38.39-93.58,78.74-107.43,109.35-7.95,17.59,12.97,32.32,30.88,21.83,37.65-22.06,90.95-43.79,120.25-12.96,48.52,51.07,253.65-111.93,253.65-111.93Z"/>
            <path class="cls-127" d="M2288.36,836.68s-112.75-117.36-297.36-6.29c-63.8,38.39-93.58,78.74-107.43,109.35-7.95,17.59,12.97,32.32,30.88,21.83,37.65-22.06,90.95-43.79,120.25-12.96,48.52,51.07,253.65-111.93,253.65-111.93Z"/>
            <path class="cls-146" d="M1883.6,941.28c13.84-30.61,43.62-70.97,107.43-109.35,175.63-105.67,286.14-4.66,296.48,5.42.52-.41.86-.68.86-.68,0,0-112.75-117.36-297.36-6.29-63.8,38.39-93.58,78.74-107.42,109.35-1.24,2.74-1.71,5.39-1.67,7.91.16-2.05.7-4.19,1.68-6.37Z"/>
          </g>
          <g>
            <path class="cls-145" d="M2410.78,1149.73s-9.3,162.48-221.76,198.19c-73.43,12.34-122.3,1.07-152.72-13.18-17.48-8.19-11.17-32.99,9.26-36.67,42.95-7.73,97.57-25.9,99.76-68.37,3.64-70.35,265.47-79.98,265.47-79.98Z"/>
            <path class="cls-142" d="M2402.09,1144.33s-9.3,162.48-221.76,198.19c-73.43,12.34-122.3,1.07-152.72-13.18-17.48-8.19-11.17-32.99,9.26-36.67,42.95-7.73,97.57-25.9,99.76-68.37,3.64-70.35,265.47-79.98,265.47-79.98Z"/>
            <path class="cls-141" d="M2026.61,1328.16c30.43,14.25,79.29,25.53,152.72,13.18,202.13-33.98,220.36-182.58,221.66-196.97.66-.03,1.09-.04,1.09-.04,0,0-9.3,162.48-221.76,198.19-73.43,12.34-122.3,1.07-152.72-13.18-2.72-1.27-4.8-2.98-6.41-4.92,1.45,1.45,3.25,2.73,5.42,3.74Z"/>
          </g>
        </g>
        <path class="cls-143" d="M2055.62,1221.03l172.39-32.22-126.26-268.48-126.44,83.45.29.79c-1.92.16-3.8.5-5.59,1.16-25.17,9.3-27.59,65.48-5.42,125.47,22.18,59.99,60.56,101.08,85.73,91.78,1.79-.66,3.44-1.63,5-2.75l.29.79Z"/>
        <path class="cls-140" d="M2603.72,993.75l-64.26-173.84c-6.2-16.77-21.46-28.43-39.26-30.16-79.27-7.69-298.39-12.76-409.32,146.76v.03c-25.69,24.21-28.83,86-5.21,149.91,23.62,63.9,66.2,108.79,101.47,110.47v.04c188.04,49,351.17-97.38,406.38-154.77,12.4-12.89,16.4-31.66,10.2-48.44Z"/>
        <path class="cls-144" d="M2613.52,1020.13c123.08-67.32,160.98-187.77,161.16-188.37h.02s-.01-.01-.01-.01c0,0,0-.01,0-.01h-.02c-.53-.33-107.66-67.16-244.94-38.24l-.05.43c-1.46.23-2.84.64-4.2,1.14-31.81,11.76-38.82,71.96-15.68,134.59h0s0,0,0,.01c0,0,0,0,0,.01h0c23.15,62.62,67.65,103.78,99.45,92.03,1.36-.5,2.68-1.09,3.93-1.86l.31.29Z"/>
        <g>
          <path class="cls-137" d="M2264.6,1028.14s-55.84,93.64-151.86,129.94c-96.02,36.3-177.42,60.79-181.32,50.25-.47-1.27-5.36-7.3-3.39-9.18,14.31-13.67,92.11-37.27,123.23-55.1,35.4-20.28,36.51-41.46,36.51-41.46l173.45-83.63,3.39,9.18Z"/>
          <path class="cls-138" d="M2261.2,1018.96s-55.84,93.64-151.86,129.94c-96.02,36.3-177.42,60.79-181.32,50.25-3.9-10.54,84.43-44,119.84-64.28,35.4-20.28,36.51-41.46,36.51-41.46l176.84-74.45Z"/>
          <path class="cls-139" d="M2109.34,1148.9c96.02-36.3,151.86-129.94,151.86-129.94l-1.44.61c-8.93,14.07-62.9,94.53-150.4,127.6-95.71,36.18-176.84,60.61-181.24,50.33-.21.59-.29,1.15-.11,1.65,3.9,10.54,85.3-13.95,181.32-50.25Z"/>
        </g>
        <ellipse class="cls-151" cx="2396.72" cy="971.47" rx="103.52" ry="111.66" transform="translate(-188.16 891.32) rotate(-20.29)"/>
        <ellipse class="cls-150" cx="2385.93" cy="975.46" rx="103.52" ry="111.66" transform="translate(-190.21 887.84) rotate(-20.29)"/>
        <path class="cls-147" d="M2418.99,1064.95c-45.82,16.94-97.76-9.37-116.04-58.8-18.27-49.43,4.04-103.29,49.86-120.23,1.45-.53,2.89-1.07,4.28-1.48-42.81,18.7-63.22,70.73-45.55,118.53,17.67,47.81,66.99,73.95,111.67,60.31-1.32.59-2.77,1.13-4.21,1.66Z"/>
        <path class="cls-148" d="M2423.39,1063.23c-.09.03-.18.07-.18.07-44.68,13.64-93.99-12.51-111.67-60.31-17.67-47.81,2.75-99.83,45.55-118.53,0,0,.09-.03.18-.07,44.67-13.64,94.03,12.6,111.7,60.4,17.67,47.81-2.78,99.74-45.58,118.44Z"/>
        <path class="cls-149" d="M2481.05,940.29c21.25,57.48-4.46,119.98-57.41,140.21.33-.12.67-.19,1.01-.31,53.62-19.82,79.76-82.79,58.38-140.63-21.38-57.84-82.19-88.66-135.81-68.84-.33.12-.64.29-.97.42,53.38-19.08,113.56,11.67,134.81,69.15Z"/>
      </g>
      <path class="cls-3" d="M901.03,319.02s-554.34,242.02-497.2,741.43c57.14,499.41-205.7,665.04-351.2,529.89-168.01-156.07,125.7-671.23,600.34-198.48,474.64,472.75,1225.46-283.49,1225.46-283.49"/>
    </g>
  </g>
</svg>